Coordinates
version=1
nRows=7
nColumns=63
inDegrees=yes

Units are S.I. units (second, meters, Newtons, ...)
If the header above contains a line with 'inDegrees', this indicates whether rotational values are in degrees (yes) or radians (no).

endheader
time	pelvis_tilt	pelvis_list	pelvis_rotation	pelvis_tx	pelvis_ty	pelvis_tz	hip_flexion_r	hip_adduction_r	hip_rotation_r	knee_angle_r	knee_angle_r_beta	ankle_angle_r	subtalar_angle_r	mtp_angle_r	hip_flexion_l	hip_adduction_l	hip_rotation_l	knee_angle_l	knee_angle_l_beta	ankle_angle_l	subtalar_angle_l	mtp_angle_l	L5_S1_Flex_Ext	L5_S1_Lat_Bending	L5_S1_axial_rotation	L4_L5_Flex_Ext	L4_L5_Lat_Bending	L4_L5_axial_rotation	L3_L4_Flex_Ext	L3_L4_Lat_Bending	L3_L4_axial_rotation	L2_L3_Flex_Ext	L2_L3_Lat_Bending	L2_L3_axial_rotation	L1_L2_Flex_Ext	L1_L2_Lat_Bending	L1_L2_axial_rotation	L1_T12_Flex_Ext	L1_T12_Lat_Bending	L1_T12_axial_rotation	Abs_r3	Abs_r2	Abs_r1	Abs_t1	Abs_t2	neck_flexion	neck_bending	neck_rotation	arm_flex_r	arm_add_r	arm_rot_r	elbow_flex_r	pro_sup_r	wrist_flex_r	wrist_dev_r	arm_flex_l	arm_add_l	arm_rot_l	elbow_flex_l	pro_sup_l	wrist_flex_l	wrist_dev_l
      3.00000000	     -5.83782663	     -4.84463782	    103.24822820	      0.27515774	      0.75189990	      0.78742268	     -7.79464374	      0.89771028	    -21.15929813	      0.83922480	      0.01464724	     20.80896538	     -1.36861951	      0.00000000	     -3.25227331	     -0.44135696	     12.98073262	      0.28900469	      0.00504408	     34.78160850	      3.41628537	      0.00000000	      0.08391001	      0.28364881	     -1.84552965	      0.15582928	      0.37725292	     -1.96087525	      0.13785575	      0.68966372	     -1.96087525	      0.09590075	      0.68966372	     -1.61483844	      0.07791883	      0.57841666	     -1.49949284	      0.04794618	      0.43937201	     -1.38414723	      0.59936080	      3.20869209	    -10.26428223	      0.00000000	      0.00000000	     24.26163241	      0.09828955	     -2.58691061	     20.93709546	    -11.57035664	     79.89506767	     44.69411511	     23.64976213	      1.40057211	     18.81344452	     10.45290837	     -5.18008878	     42.27200326	     45.49861288	     60.36997907	      4.55774085	     13.31415557
      3.01960784	     -6.07158755	     -4.84936541	    103.34002915	      0.27461017	      0.75209845	      0.78712585	     -7.86667200	      0.64042572	    -21.61508821	      0.88490960	      0.01544459	     21.17662351	     -0.83541947	      0.00000000	     -3.30713944	     -0.18144897	     13.09368804	      0.28719773	      0.00501255	     34.51967149	      3.60873480	      0.00000000	      0.10516043	      0.26334409	     -1.86252640	      0.19529343	      0.35024764	     -1.97893430	      0.17276807	      0.64029482	     -1.97893430	      0.12018785	      0.64029482	     -1.62971060	      0.09765197	      0.53701126	     -1.51330270	      0.06008867	      0.40791999	     -1.39689480	      0.75115043	      2.97900099	    -10.35881306	      0.00000000	      0.00000000	     24.31798059	      0.15028401	     -1.02411088	     20.66321065	    -11.48337875	     79.25489373	     44.51777197	     22.90106359	      2.06623884	     19.84685142	     10.45739512	     -5.28445350	     43.06833733	     44.94678071	     60.77813784	      5.26367754	     10.10610181
      3.03921569	     -6.30826584	     -4.95944154	    103.17928120	      0.27427221	      0.75233384	      0.78783332	     -7.74588323	      0.29794661	    -21.09655291	      0.91571067	      0.01598217	     21.30698255	     -1.25879503	      0.00000000	     -3.20744481	      0.16046299	     14.59295838	      0.27925256	      0.00487388	     33.69396874	      1.51638861	      0.00000000	      0.11725743	      0.24866140	     -1.83013989	      0.21775877	      0.33071966	     -1.94452363	      0.19264223	      0.60459532	     -1.94452363	      0.13401351	      0.60459532	     -1.60137240	      0.10888525	      0.50707032	     -1.48698866	      0.06700089	      0.38517650	     -1.37260492	      0.83755809	      2.81290743	    -10.17868902	      0.00000000	      0.00000000	     24.59275768	     -0.02833643	      0.50932656	     20.78579773	    -11.53257115	     80.08306487	     44.70992862	     15.19430287	      0.68960522	     20.46384530	     10.70123171	     -5.39621225	     44.05552410	     44.29326536	     61.72648526	      5.53142963	      6.20173119
      3.05882353	     -6.52970743	     -5.23927102	    102.93466385	      0.27394194	      0.75248267	      0.78946373	     -7.35979098	     -0.11914310	    -20.92916285	      0.94367469	      0.01647023	     21.70790982	     -0.77042795	      0.00000000	     -2.84672783	      0.54684651	     14.43236934	      0.27858384	      0.00486221	     33.15386155	      1.40646917	      0.00000000	      0.13644817	      0.23941133	     -1.76132365	      0.25339790	      0.31841707	     -1.87140638	      0.22417071	      0.58210471	     -1.87140638	      0.15594662	      0.58210471	     -1.54115819	      0.12670577	      0.48820758	     -1.43107547	      0.07796649	      0.37084815	     -1.32099274	      0.97463567	      2.70826885	     -9.79595375	      0.00000000	      0.00000000	     24.91952423	     -0.30503083	      1.95563145	     20.60736626	    -11.60064477	     80.15545929	     44.25501287	     14.10184300	      1.37815562	     19.99984371	     11.40532796	     -5.67771237	     45.92198120	     43.46983891	     63.07412897	      5.10544815	      1.60436815
      3.07843137	     -6.71245918	     -5.49380592	    102.60202106	      0.27343994	      0.75275234	      0.79132531	     -6.99806304	     -0.50568917	    -19.82151322	      0.84571592	      0.01476053	     21.95205933	     -1.14871401	      0.00000000	     -2.49568980	      0.91110055	     14.08846894	      0.27767991	      0.00484643	     32.65833944	      1.29191955	      0.00000000	      0.14850537	      0.24256837	     -1.67620887	      0.27578931	      0.32261593	     -1.78097193	      0.24397946	      0.58978074	     -1.78097193	      0.16972678	      0.58978074	     -1.46668276	      0.13790208	      0.49464542	     -1.36191971	      0.08485597	      0.37573841	     -1.25715665	      1.06075898	      2.74398193	     -9.32257089	      0.00000000	      0.00000000	     25.14605068	     -0.79372930	      3.08231318	     20.69757985	    -11.80591666	     81.82283327	     43.54030166	     11.85712912	      2.16783123	     18.14561031	     12.34776255	     -6.05980538	     48.18452433	     42.53453360	     64.59606452	      3.89092741	     -2.56790603
      3.09803922	     -6.87432160	     -5.61540890	    102.17490394	      0.27299816	      0.75311402	      0.79274369	     -6.81362421	     -0.83042233	    -17.30408798	      0.66701437	      0.01164160	     21.77343543	     -3.30076132	      0.00000000	     -2.34176620	      1.21525943	     14.22631167	      0.27157320	      0.00473985	     32.25099005	      0.49811642	      0.00000000	      0.14646388	      0.25797552	     -1.58778395	      0.27199806	      0.34310745	     -1.68702045	      0.24062550	      0.62724169	     -1.68702045	      0.16739356	      0.62724169	     -1.38931096	      0.13600635	      0.52606369	     -1.29007446	      0.08368946	      0.39960409	     -1.19083796	      1.04617681	      2.91827072	     -8.83077800	      0.00000000	      0.00000000	     25.16787402	     -1.26189750	      4.40377946	     21.00555571	    -12.04543088	     84.83026755	     42.32093871	      9.76953348	      3.60881182	     15.48120585	     13.29795249	     -6.64993953	     50.42386643	     41.66629166	     65.74034656	      2.80191888	     -4.93267973
      3.11764706	     -6.99865626	     -5.67132119	    101.55082697	      0.27254806	      0.75342032	      0.79352006	     -6.68032448	     -1.15810135	    -16.32284556	      0.59304401	      0.01035057	     21.97901756	     -3.11543965	      0.00000000	     -2.33564177	      1.46739138	     13.83815560	      0.26730697	      0.00466539	     32.09189506	      0.20636743	      0.00000000	      0.14837233	      0.28329718	     -1.43387747	      0.27554226	      0.37678526	     -1.52349481	      0.24376090	      0.68880877	     -1.52349481	      0.16957474	      0.68880877	     -1.25464279	      0.13777855	      0.57769962	     -1.16502544	      0.08477995	      0.43882734	     -1.07540810	      1.05980873	      3.20471441	     -7.97479632	      0.00000000	      0.00000000	     24.93213298	     -1.85397931	      5.54743222	     20.71185499	    -12.62669941	     86.17847616	     40.90843936	     10.34087981	      4.99850717	     13.76093688	     14.39143037	     -7.24046334	     52.69497854	     40.52183264	     67.56267120	      2.67344963	     -5.32777702
